<svg width="192" height="192" viewBox="0 0 192 192" fill="none" xmlns="http://www.w3.org/2000/svg">
  <!-- Background -->
  <rect width="192" height="192" rx="20" fill="#1f2937"/>
  
  <!-- Inner circles -->
  <circle cx="96" cy="96" r="85" fill="#dc2626"/>
  <circle cx="96" cy="96" r="80" fill="#1f2937"/>
  
  <!-- Car Body -->
  <path d="M50 88L60 70H132L142 88V116H50V88Z" fill="#dc2626"/>
  <path d="M53 88L61 73H131L139 88V113H53V88Z" fill="#ef4444"/>
  
  <!-- Windows -->
  <rect x="65" y="75" width="22" height="11" rx="2" fill="#374151"/>
  <rect x="105" y="75" width="22" height="11" rx="2" fill="#374151"/>
  
  <!-- Wheels -->
  <circle cx="70" cy="116" r="11" fill="#111827"/>
  <circle cx="70" cy="116" r="7" fill="#6b7280"/>
  <circle cx="122" cy="116" r="11" fill="#111827"/>
  <circle cx="122" cy="116" r="7" fill="#6b7280"/>
  
  <!-- Headlight -->
  <circle cx="137" cy="96" r="4" fill="#fbbf24"/>
  
  <!-- Grille -->
  <rect x="133" y="91" width="6" height="10" rx="1" fill="#374151"/>
  
  <!-- Wrench Tool -->
  <g transform="translate(70, 65) rotate(-45)">
    <rect x="-3" y="-16" width="6" height="28" rx="2" fill="#9ca3af"/>
    <circle cx="0" cy="-17" r="5" fill="#9ca3af"/>
    <circle cx="0" cy="-17" r="3" fill="#374151"/>
  </g>
  
  <!-- Text GAP -->
  <text x="96" y="152" font-family="Arial, sans-serif" font-size="26" font-weight="bold" fill="white" text-anchor="middle">GAP</text>
  <text x="96" y="168" font-family="Arial, sans-serif" font-size="11" font-weight="normal" fill="#ef4444" text-anchor="middle">MARRAKECH</text>
</svg>
