<svg width="200" height="400" viewBox="0 0 200 400" fill="none" xmlns="http://www.w3.org/2000/svg">
  <!-- Logo Circle at top -->
  <g transform="translate(100, 100)">
    <!-- Background circles -->
    <circle cx="0" cy="0" r="95" fill="#1f2937"/>
    <circle cx="0" cy="0" r="90" fill="#dc2626"/>
    <circle cx="0" cy="0" r="82" fill="#1f2937"/>
    
    <!-- Car Body -->
    <path d="M-35,-12 L-27,-24 L27,-24 L35,-12 L35,12 L-35,12 Z" fill="#dc2626"/>
    <path d="M-31,-12 L-25,-20 L25,-20 L31,-12 L31,8 L-31,8 Z" fill="#ef4444"/>
    
    <!-- Windows -->
    <rect x="-23" y="-18" width="19" height="9" rx="2" fill="#374151"/>
    <rect x="4" y="-18" width="19" height="9" rx="2" fill="#374151"/>
    
    <!-- Wheels -->
    <circle cx="-22" cy="12" r="6" fill="#111827"/>
    <circle cx="-22" cy="12" r="4" fill="#6b7280"/>
    <circle cx="22" cy="12" r="6" fill="#111827"/>
    <circle cx="22" cy="12" r="4" fill="#6b7280"/>
    
    <!-- Headlight -->
    <circle cx="33" cy="0" r="2" fill="#fbbf24"/>
    
    <!-- Grille -->
    <rect x="30" y="-4" width="4" height="8" rx="1" fill="#374151"/>
    
    <!-- Wrench Tool -->
    <g transform="translate(-15, -15) rotate(-45)">
      <rect x="-2" y="-13" width="4" height="22" rx="1.5" fill="#9ca3af"/>
      <circle cx="0" cy="-14" r="4" fill="#9ca3af"/>
      <circle cx="0" cy="-14" r="2.5" fill="#374151"/>
    </g>
  </g>
  
  <!-- Text -->
  <text x="100" y="240" font-family="Arial, sans-serif" font-size="32" font-weight="bold" fill="#1f2937" text-anchor="middle">Garage Auto Pro</text>
  <text x="100" y="275" font-family="Arial, sans-serif" font-size="24" font-weight="bold" fill="#dc2626" text-anchor="middle">MARRAKECH</text>
  
  <!-- Tagline -->
  <text x="100" y="310" font-family="Arial, sans-serif" font-size="14" fill="#6b7280" text-anchor="middle">Mécanicien Professionnel</text>
  <text x="100" y="330" font-family="Arial, sans-serif" font-size="14" fill="#6b7280" text-anchor="middle">Réparation & Entretien Auto</text>
  
  <!-- Contact -->
  <text x="100" y="365" font-family="Arial, sans-serif" font-size="13" font-weight="600" fill="#1f2937" text-anchor="middle">+212 661-234567</text>
  <text x="100" y="385" font-family="Arial, sans-serif" font-size="11" fill="#6b7280" text-anchor="middle">mecaniquemarrakech.com</text>
</svg>
